<?xml version="1.0" encoding="UTF-8"?>
<svg xmlns="http://www.w3.org/2000/svg" xmlns:xlink="http://www.w3.org/1999/xlink" viewBox="0 0 1466.65 1441.42">
  <defs>
    <style>.cls-1{fill:url(#listogradient);}</style>
    <radialGradient id="listogradient" cx="1159.64" cy="102.98" r="1567.58" gradientUnits="userSpaceOnUse">
      <stop offset="0" stop-color="#00c2af"></stop>
      <stop offset="1" stop-color="#00de7a"></stop>
    </radialGradient>
  </defs>
  <g id="Capa_2" data-name="Capa 2">
    <g id="Capa_32" data-name="Capa 32">
      <path class="cls-1" d="M1441.54,533A706.1,706.1,0,0,0,1392.21,404a713.62,713.62,0,0,0-56-93.67,724.69,724.69,0,0,0-84.27-99.14C1119.19,80.68,935.84,0,733.33,0,328.29,0,0,322.65,0,720.74s328.29,720.68,733.33,720.68,733.32-322.65,733.32-720.68A711.45,711.45,0,0,0,1441.54,533ZM733.33,1159.17c-248.74,0-451.08-196.69-451.08-438.43,0-5.47.12-10.94.35-16.35,3.36-89.26,34.29-171.76,84.74-239.73,82-110.44,215.51-182.41,366-182.41,104.72,0,201.22,34.87,277.84,93.38a442.65,442.65,0,0,1,91.67,94L740.91,716.8,489.3,576.38a62.87,62.87,0,0,0-71.51,101.79L666,922.73a101.36,101.36,0,0,0,136.48,2.64L1167.7,602.49a425,425,0,0,1,16.7,118.25q0,21-2.06,41.46C1160.82,984.59,967.59,1159.17,733.33,1159.17Z"></path>
    </g>
  </g>
</svg>
