<svg xmlns="http://www.w3.org/2000/svg" xmlns:xlink="http://www.w3.org/1999/xlink" viewBox="0 0 4283.21 1188.07"><defs><style>.cls-1{fill:url(#Degradado_sin_nombre_119);}.cls-2{fill:#352b33;}.cls-3{fill:url(#Degradado_sin_nombre_119-2);}</style><radialGradient id="Degradado_sin_nombre_119" cx="412.26" cy="-27.11" r="230.96" gradientUnits="userSpaceOnUse"><stop offset="0" stop-color="#00c2af"/><stop offset="1" stop-color="#00de7a"/></radialGradient><radialGradient id="Degradado_sin_nombre_119-2" cx="2235.97" cy="306.72" r="797.11" xlink:href="#Degradado_sin_nombre_119"/></defs><g id="Capa_2" data-name="Capa 2"><g id="Capa_32" data-name="Capa 32"><path class="cls-1" d="M340.9,0c53,0,95.76,44.46,95.76,97.47,0,54.72-42.75,99.18-95.76,99.18a99.25,99.25,0,0,1-99.18-99.18C241.72,44.46,286.18,0,340.9,0Z"/><path class="cls-2" d="M0,69.07H0A158.62,158.62,0,0,1,158.62,227.69v759.7h0A158.62,158.62,0,0,1,0,828.77ZM264.5,830.16A157.24,157.24,0,0,0,421.73,987.39h0V411.84A157.22,157.22,0,0,0,264.5,254.62h0ZM516.33,740l63.34,1.69c45.31,1.2,86.38,24.41,113.69,60.59,24.88,32.94,69.33,42.93,113.77,44.86,58.44,1.39,119.66-25,121-72.35,2.78-51.48-33.39-66.79-129.39-80.7C622.08,673.18,514.94,618.91,512.16,484S622.08,254.37,789.05,254.37c179.49,0,292.19,90.44,297.75,256h-61.08c-47.18,0-90-24.86-116.36-64-22.18-32.9-62.35-50.59-121.71-51.5-65.39,0-118.26,32-118.26,84.88,0,48.69,39,66.78,140.53,83.48,197.57,30.61,276.88,86.26,276.88,211.49-1.39,128-107.13,214.27-276.88,212.88C648.51,986.24,516.33,904.15,516.33,740ZM1527.15,846.13l-.24-.06C1424.4,818.57,1425.45,717,1425.45,714.91V395.16h170.7a140.53,140.53,0,0,0-140.53-140.53h-28.8L1425.45,55.4A158.63,158.63,0,0,0,1266.83,214v40.6H1100.42A140.53,140.53,0,0,0,1241,395.16h25.88V713.54c0,173.89,130.78,274.09,281.07,274.09,2,0,108.81,0,110.77-.09A141.81,141.81,0,0,0,1527.15,846.13ZM2469.9,258.75h0l199.19,610.57,190.78-534.44a114.7,114.7,0,0,1,108-76.13h0l220.85,610.57,183.9-532.8a115.43,115.43,0,0,1,109.11-77.77h0L3226.26,990.57h0a103.09,103.09,0,0,1-96.87-67.81L2927.47,368.45,2702.29,990.57h0a99.94,99.94,0,0,1-94.87-68.51L2413.5,336.85A59.41,59.41,0,0,1,2469.9,258.75Zm1095.35-1h0a77.92,77.92,0,0,1,77.92,77.92V440.89c54.26-123.83,165.57-183.66,285.23-185C4126,251.66,4283.21,411.67,4283.21,619c0,233.75-158.62,374.28-354.81,370.11-116.87-1.39-232.36-54.26-283.84-180.88v379.85h0a79.31,79.31,0,0,1-79.31-79.31Zm357.59,659c137.74,0,281.05-111.32,281.05-297.76,0-172.53-140.53-289.41-282.45-289.41-135,0-276.88,109.92-276.88,289.41C3644.56,812.39,3787.87,916.75,3922.84,916.75Z"/><path class="cls-3" d="M2379.31,525.41a359.12,359.12,0,0,0-25.08-65.64,363.24,363.24,0,0,0-28.5-47.63,368.69,368.69,0,0,0-42.85-50.41c-67.48-66.35-160.71-107.37-263.69-107.37-206,0-372.89,164.06-372.89,366.49s166.93,366.46,372.89,366.46,372.89-164.06,372.89-366.46A361.47,361.47,0,0,0,2379.31,525.41ZM2019.19,843.79c-126.48,0-229.37-100-229.37-222.94,0-2.78.06-5.56.18-8.31a217.69,217.69,0,0,1,43.09-121.91c41.71-56.15,109.58-92.75,186.1-92.75a232.14,232.14,0,0,1,141.28,47.48,225.26,225.26,0,0,1,46.62,47.81l-184,125.68-128-71.41a32,32,0,0,0-36.36,51.76L1985,723.56a51.54,51.54,0,0,0,69.4,1.34l185.72-164.18a216.19,216.19,0,0,1,8.49,60.13q0,10.67-1,21.08C2236.57,755,2138.31,843.79,2019.19,843.79Z"/></g></g></svg>